<?xml version="1.0" encoding="UTF-8" standalone="no"?>
<svg
   xmlns:dc="http://purl.org/dc/elements/1.1/"
   xmlns:cc="http://creativecommons.org/ns#"
   xmlns:rdf="http://www.w3.org/1999/02/22-rdf-syntax-ns#"
   xmlns:svg="http://www.w3.org/2000/svg"
   xmlns="http://www.w3.org/2000/svg"
   xmlns:sodipodi="http://sodipodi.sourceforge.net/DTD/sodipodi-0.dtd"
   xmlns:inkscape="http://www.inkscape.org/namespaces/inkscape"
   id="Outline"
   viewBox="0 0 30.933227 32"
   width="30.933228"
   height="32"
   version="1.1"
   sodipodi:docname="logo.svg"
   inkscape:version="0.92.5 (0.92.5+68)">
  <metadata
     id="metadata15">
    <rdf:RDF>
      <cc:Work
         rdf:about="">
        <dc:format>image/svg+xml</dc:format>
        <dc:type
           rdf:resource="http://purl.org/dc/dcmitype/StillImage" />
        <dc:title></dc:title>
      </cc:Work>
    </rdf:RDF>
  </metadata>
  <defs
     id="defs13" />
  <sodipodi:namedview
     pagecolor="#ffffff"
     bordercolor="#666666"
     borderopacity="1"
     objecttolerance="10"
     gridtolerance="10"
     guidetolerance="10"
     inkscape:pageopacity="0"
     inkscape:pageshadow="2"
     inkscape:window-width="1366"
     inkscape:window-height="700"
     id="namedview11"
     showgrid="false"
     inkscape:zoom="1.3037281"
     inkscape:cx="-140.42351"
     inkscape:cy="5.3202271"
     inkscape:window-x="0"
     inkscape:window-y="0"
     inkscape:window-maximized="1"
     inkscape:current-layer="Outline"
     fit-margin-top="0"
     fit-margin-left="0"
     fit-margin-right="0"
     fit-margin-bottom="0" />
  <g
     id="g4539"
     transform="matrix(0.06666644,0,0,0.06666644,-1.5999946,-1.0665542)"
     style="stroke-width:15.0000515">
    <path
       style="fill:#ff625a;fill-opacity:1;stroke-width:15.0000515"
       id="path2"
       d="m 24,312 c 0,48.772 14.739,94.707 41.5,129.343 C 92.739,476.589 129.14,496 168,496 h 256 a 8,8 0 0 0 7.951,-7.116 L 463.66,203.505 C 469.848,196.542 488,173.592 488,144 488,114.526 475.521,91.568 471.72,85.258 l -7.782,-62.25 A 8,8 0 0 0 451,17.753 L 414.735,46.767 C 396.673,40.084 369.264,40 368,40 a 179.851,179.851 0 0 0 -46.336,7.086 L 285,17.753 a 8,8 0 0 0 -12.936,5.255 l -7.782,62.25 C 260.479,91.568 248,114.526 248,144 c 0,20.808 8.975,38.332 16.455,49.323 -30.574,5.084 -63.361,24.581 -90.374,54.295 C 139.206,285.98 120,334.415 120,384 c 0,9.036 0.363,17.33 1.022,24.967 C 100.535,386.639 88,350.886 88,312 88,279.367 108.116,214.471 124.28,162.325 136.875,121.7 144,98.21 144,88 A 56,56 0 0 0 32,88 32.012,32.012 0 0 0 72.814,118.766 C 69.469,130.258 65.285,143.755 61,157.588 44.514,210.765 24,276.944 24,312 Z M 329.94,448 H 368 v 32 H 334.863 Z M 384,480 v -32 h 36.4 l -3.555,32 z M 185.919,258.382 C 214.171,227.305 250.22,208 280,208 a 8.006,8.006 0 0 0 5.669,-13.645 C 285.453,194.137 264,172.163 264,144 c 0,-29.025 14.52,-51.355 14.656,-51.562 a 8,8 0 0 0 1.282,-3.446 L 286.165,39.177 315,62.247 a 8,8 0 0 0 7.528,1.343 C 344.932,56.122 367.778,56 368,56 c 8.375,0 32.683,1.285 44.422,7.155 A 8,8 0 0 0 421,62.247 l 28.837,-23.07 6.227,49.815 a 8,8 0 0 0 1.282,3.446 C 457.49,92.657 472,114.761 472,144 c 0,28.163 -21.453,50.137 -21.657,50.343 a 8.009,8.009 0 0 0 -2.294,4.773 L 422.173,432 H 384 V 280 a 8,8 0 0 0 -16,0 v 152 h -40 c -0.175,0 -0.346,0.015 -0.517,0.026 L 303.907,278.783 a 8.0001086,8.0001086 0 0 0 -15.814,2.434 l 22.576,146.744 A 88.069,88.069 0 0 0 246.416,400 H 216 a 8,8 0 0 0 0,16 h 30.416 a 72.2,72.2 0 0 1 70.6,57.879 L 318.242,480 H 176 c -0.085,0 -8.911,-0.448 -18.122,-10.426 C 147.9,458.761 136,435.138 136,384 c 0,-45.6 17.729,-90.208 49.919,-125.618 z M 88,80 a 8,8 0 0 0 -8,8 v 0.016 A 19.5,19.5 0 0 1 79.854,90.165 16,16 0 0 1 48,88 a 40,40 0 0 1 80,0 c 0,8.284 -9.23,38.062 -19,69.588 C 92.514,210.765 72,276.944 72,312 c 0,51.465 20.485,98.446 52.536,121.4 4.286,20.36 11.135,34.105 18.464,43.374 C 84.348,461.47 40,393.409 40,312 40,279.367 60.116,214.471 76.28,162.325 86.966,127.853 93.715,105.725 95.515,93.569 A 32.058,32.058 0 0 0 96,88.017 V 88 a 8,8 0 0 0 -8,-8 z"
       inkscape:connector-curvature="0" />
    <path
       style="fill:#ff625a;fill-opacity:1;stroke-width:15.0000515"
       id="path4"
       d="m 416,152 c 25.312,0 32,-26.165 32,-40 a 8,8 0 0 0 -8,-8 h -48 a 8,8 0 0 0 -8,8 59.643,59.643 0 0 0 3.509,18.809 C 392.634,144.475 402.752,152 416,152 Z m 15.012,-32 a 37.185,37.185 0 0 1 -1.5,5.191 C 425.876,134.88 420.059,136 416,136 c -4,0 -9.744,-1.088 -13.39,-10.5 a 36.678,36.678 0 0 1 -1.621,-5.5 z"
       inkscape:connector-curvature="0" />
    <path
       style="fill:#ff625a;fill-opacity:1;stroke-width:15.0000515"
       id="path6"
       d="m 320,152 c 25.312,0 32,-26.165 32,-40 a 8,8 0 0 0 -8,-8 h -48 a 8,8 0 0 0 -8,8 59.643,59.643 0 0 0 3.509,18.809 C 296.634,144.475 306.752,152 320,152 Z m 15.012,-32 a 37.185,37.185 0 0 1 -1.5,5.191 C 329.876,134.88 324.059,136 320,136 c -4,0 -9.744,-1.088 -13.39,-10.5 a 36.678,36.678 0 0 1 -1.621,-5.5 z"
       inkscape:connector-curvature="0" />
    <path
       style="fill:#ff625a;fill-opacity:1;stroke-width:15.0000515"
       id="path8"
       d="m 336.572,178.971 a 8,8 0 0 0 10.4,4.457 c 9.254,-3.7 16.172,-7.431 21.029,-11.383 4.857,3.952 11.775,7.682 21.029,11.383 a 8.0001266,8.0001266 0 0 0 5.942,-14.856 c -15.937,-6.374 -19.2,-10.911 -19.816,-12.15 a 8,8 0 0 0 -14.31,0 c -0.62,1.239 -3.879,5.776 -19.816,12.15 a 8,8 0 0 0 -4.458,10.399 z"
       inkscape:connector-curvature="0" />
  </g>
</svg>
